<?xml version="1.0" encoding="UTF-8" standalone="no"?>
        <svg 
    viewBox="3.1494140625 -86.0595703125 446.1181640625 56.9091796875"
    width="442.96875"
    height="142.96875"
   xmlns="http://www.w3.org/2000/svg"
   xmlns:svg="http://www.w3.org/2000/svg">
   <path d="M31.64-54.42L30.32-58.67L94.34-58.67L104.37-68.55L121.66-52.37Q120.04-50.76 115.65-50.54L115.65-50.54Q110.82-48.19 103.78-45.89Q96.75-43.58 90.16-41.97L90.16-41.97Q89.58-39.70 85.47-38.96L85.47-38.96L85.47-30.32L117.77-30.32L128.10-43.95Q128.10-43.95 130.00-42.44Q131.91-40.94 134.88-38.60Q137.84-36.25 141.10-33.54Q144.36-30.83 147.00-28.49L147.00-28.49Q146.34-26.07 142.68-26.07L142.68-26.07L85.47-26.07L85.47-9.16Q85.47-2.20 83.72 2.64Q81.96 7.47 76.32 10.25Q70.68 13.04 59.11 13.92L59.11 13.92Q58.74 9.08 58.01 5.64Q57.28 2.20 55.37-0.15L55.37-0.15Q53.54-2.27 50.83-3.92Q48.12-5.57 42.11-6.59L42.11-6.59L42.11-8.57Q42.11-8.57 44.60-8.39Q47.09-8.20 50.54-8.02Q53.98-7.84 57.02-7.65Q60.06-7.47 61.23-7.47L61.23-7.47Q63.72-7.47 63.72-9.74L63.72-9.74L63.72-26.07L4.98-26.07L3.74-30.32L63.72-30.32L63.72-44.82L84.16-43.21Q86.50-45.70 88.95-48.67Q91.41-51.64 93.31-54.42L93.31-54.42L31.64-54.42ZM63.72-105.76L63.72-128.39L90.89-126.12Q90.82-124.58 89.72-123.49Q88.62-122.39 85.47-121.80L85.47-121.80L85.47-105.76L115.36-105.76L125.83-119.38Q125.83-119.38 127.77-117.88Q129.71-116.38 132.68-114.04Q135.64-111.69 138.94-109.02Q142.24-106.35 144.87-103.93L144.87-103.93Q144.21-101.51 140.55-101.51L140.55-101.51L91.48-101.51Q97.85-95.43 107.12-91.04Q116.38-86.65 126.71-83.75Q137.04-80.86 146.56-79.17L146.56-79.17L146.26-77.56Q140.26-75.88 136.34-70.86Q132.42-65.84 130.66-58.08L130.66-58.08Q116.02-65.33 105.03-75.81Q94.04-86.28 87.60-101.51L87.60-101.51L85.47-101.51L85.47-68.70Q85.47-68.04 82.76-66.91Q80.05-65.77 75.92-64.82Q71.78-63.87 67.53-63.87L67.53-63.87L63.72-63.87L63.72-85.77Q52.51-76.03 37.32-68.63Q22.12-61.23 4.17-56.25L4.17-56.25L3.15-57.93Q18.82-65.92 31.20-77.67Q43.58-89.43 51.12-101.51L51.12-101.51L6.74-101.51L5.57-105.76L63.72-105.76ZM156.74-89.72L155.57-93.90L213.57-93.90L213.57-127.37L241.63-125.24Q241.41-123.71 240.34-122.61Q239.28-121.51 236.13-121.07L236.13-121.07L236.13-93.90L261.04-93.90L273.12-110.38Q273.12-110.38 275.35-108.62Q277.59-106.86 280.96-104.04Q284.33-101.22 287.99-98.03Q291.65-94.85 294.58-92.07L294.58-92.07Q293.92-89.72 290.26-89.72L290.26-89.72L271.07-89.72Q266.75-72.14 258.87-56.65Q251.00-41.16 238.48-28.20L238.48-28.20Q251.00-20.36 265.47-15.16Q279.93-9.96 295.17-6.45L295.17-6.45L294.87-4.47Q286.67-3.37 280.92 1.54Q275.17 6.45 272.09 14.58L272.09 14.58Q257.96 9.16 245.84 1.87Q233.72-5.42 223.97-15.45L223.97-15.45Q210.64-5.42 193.40 2.05Q176.15 9.52 154.32 14.14L154.32 14.14L153.59 12.74Q173.14 5.13 188.23-4.91Q203.32-14.94 214.23-27.03L214.23-27.03Q205.52-38.67 199.37-54.16Q193.21-69.65 189.77-89.72L189.77-89.72L156.74-89.72ZM244.34-89.72L192.33-89.72Q196.95-73.24 205.04-60.79Q213.13-48.34 223.83-38.96L223.83-38.96Q232.03-50.61 237.05-63.35Q242.07-76.10 244.34-89.72L244.34-89.72ZM385.62-99.61L386.87-100.63Q403.13-98.51 413.45-93.90Q423.78-89.28 429.13-83.64Q434.47-78.00 435.75-72.55Q437.04-67.09 435.10-63.10Q433.15-59.11 428.87-57.86Q424.58-56.62 418.95-59.40L418.95-59.40Q415.06-66.87 409.35-74.71L409.35-74.71Q395.73-70.68 376.28-65.99Q356.84-61.30 329.22-55.37L329.22-55.37Q327.61-52.59 324.61-52.08L324.61-52.08L311.57-76.46L341.38-77.27Q343.87-84.30 346.29-92.87Q348.71-101.44 350.24-108.91L350.24-108.91L310.03-108.91L308.86-113.09L408.03-113.09L419.97-127.95Q419.97-127.95 422.17-126.34Q424.37-124.73 427.77-122.17Q431.18-119.60 434.91-116.71Q438.65-113.82 441.72-111.33L441.72-111.33Q441.06-108.91 437.40-108.91L437.40-108.91L381.59-108.91Q374.63-100.93 366.28-92.54Q357.93-84.16 349.95-77.56L349.95-77.56Q361.89-78.00 375.84-78.63Q389.79-79.25 405.03-79.98L405.03-79.98Q400.42-85.47 395.40-90.53Q390.38-95.58 385.62-99.61L385.62-99.61ZM304.98 6.45L303.74 2.27L362.70 2.27L362.70-32.37L319.34-32.37L318.16-36.62L362.70-36.62L362.70-62.70L391.04-60.42Q390.82-58.89 389.79-57.79Q388.77-56.69 385.62-56.10L385.62-56.10L385.62-36.62L402.03-36.62L413.96-51.93Q413.96-51.93 416.16-50.24Q418.36-48.56 421.77-45.92Q425.17-43.29 428.91-40.32Q432.64-37.35 435.72-34.79L435.72-34.79Q435.13-32.37 431.25-32.37L431.25-32.37L385.62-32.37L385.62 2.27L411.33 2.27L423.78-13.48Q423.78-13.48 426.01-11.79Q428.25-10.11 431.76-7.40Q435.28-4.69 439.12-1.65Q442.97 1.39 446.12 4.03L446.12 4.03Q445.46 6.45 441.58 6.45L441.58 6.45L304.98 6.45Z"/>
    </svg>
        