<svg width="272" height="272" version="1.1" xmlns="http://www.w3.org/2000/svg" xmlns:xlink="http://www.w3.org/1999/xlink"><path d="M122.67 24.75L122.67 24.75L125.39 36.18Q125.39 40.26 122.40 42.70L122.40 42.70Q114.78 42.70 103.36 33.18L103.36 33.18Q97.92 28.56 95.47 26.93L95.47 26.93Q86.50 21.22 84.59 16.86L84.59 16.86Q84.59 13.06 85.41 11.97L85.41 11.97L105.26 14.69Q116.96 17.41 122.67 24.75ZM227.66 212.98L227.66 212.98Q218.14 217.87 164.83 217.87L164.83 217.87Q147.42 210.80 124.85 186.05L124.85 186.05L110.43 170Q82.96 199.65 28.83 204.27L28.83 204.27L23.39 203.46Q22.85 202.91 22.58 202.10L22.58 202.10L42.98 195.02Q83.78 180.61 101.46 159.66L101.46 159.66Q77.52 132.46 65.01 122.40L65.01 122.40Q60.11 118.32 55.22 115.06L55.22 115.06L54.94 112.88Q62.83 109.89 72.90 115.87L72.90 115.87Q75.89 117.78 78.34 120.22L78.34 120.22L107.17 149.60Q122.13 115.33 117.50 89.49L117.50 89.49Q116.96 86.50 116.42 84.05L116.42 84.05Q110.16 83.23 67.18 92.48L67.18 92.48Q49.50 96.29 43.25 96.83L43.25 96.83Q37.26 97.38 29.38 90.85L29.38 90.85Q27.20 88.94 25.57 87.04L25.57 87.04Q25.57 84.59 28.02 84.05L28.02 84.05Q31.55 83.23 53.58 81.06L53.58 81.06Q55.22 81.06 56.58 80.78L56.58 80.78Q104.99 74.80 153.95 62.83L153.95 62.83L170.54 58.48Q171.36 58.21 171.90 58.21L171.90 58.21Q181.15 57.12 191.49 64.46L191.49 64.46Q193.94 65.82 196.38 68L196.38 68Q196.38 70.72 192.58 72.62L192.58 72.62L131.92 81.06L128.11 81.87Q134.37 85.41 140.62 91.94L140.62 91.94Q141.71 94.66 138.99 100.10L138.99 100.10L138.18 102.54L135.73 116.42Q130.83 139.81 118.59 159.66L118.59 159.66Q140.35 182.24 180.61 195.84L180.61 195.84L222.22 208.62Q226.85 209.98 227.66 212.98Z" stroke="#000" fill="black" /></svg>