<svg width="272" height="272" version="1.1" xmlns="http://www.w3.org/2000/svg" xmlns:xlink="http://www.w3.org/1999/xlink"><path d="M235.55 123.79L235.55 123.79L233.92 125.43Q213.52 130.59 190.40 130.59L190.40 130.59Q172.18 121.62 145.25 95.51L145.25 95.51L125.94 77.28L124.58 108.83Q123.49 120.53 120.50 120.53L120.50 120.53L119.14 119.99Q112.34 112.91 113.70 91.70L113.70 91.70Q114.24 83.54 114.24 81.09L114.24 81.09Q64.19 135.22 33.46 138.75L33.46 138.75L29.65 138.21Q28.83 137.94 28.02 137.39L28.02 137.39Q32.10 133.86 47.87 124.07L47.87 124.07Q50.05 122.71 51.68 121.62L51.68 121.62Q89.49 96.05 104.99 70.48L104.99 70.48Q102.27 70.48 85.14 73.47L85.14 73.47Q66.64 76.74 58.48 67.76L58.48 67.76Q57.94 67.49 57.39 66.95L57.39 66.95Q57.39 65.04 60.38 63.95L60.38 63.95L113.97 59.33L114.78 58.79L112.88 40.02Q111.79 34.85 109.62 30.77L109.62 30.77Q108.53 23.15 118.32 26.69L118.32 26.69Q127.57 30.23 133.28 36.21L133.28 36.21Q133.01 39.20 128.38 53.35L128.38 53.35L127.57 56.61Q131.65 56.34 151.78 51.99L151.78 51.99Q174.35 47.36 183.06 55.25L183.06 55.25Q183.60 55.52 183.87 56.07L183.87 56.07Q184.96 57.15 184.96 59.33L184.96 59.33L182.51 61.51Q148.24 63.68 127.30 66.95L127.30 66.95Q126.48 67.49 126.48 69.12L126.48 69.12Q150.96 89.25 170.82 100.13L170.82 100.13Q175.17 102.31 178.16 103.39L178.16 103.39L219.50 117.81Q233.65 122.43 234.46 122.98L234.46 122.98Q234.74 123.25 235.55 123.79ZM231.20 177.65L231.20 177.65Q228.21 180.10 223.31 180.10L223.31 180.10L181.97 179.01L181.70 179.01L132.19 180.64L133.82 219.27Q133.28 247.28 118.59 259.25L118.59 259.25Q116.14 259.25 112.06 254.90L112.06 254.90Q107.98 250.82 88.67 233.68L88.67 233.68Q87.04 232.32 85.68 230.96L85.68 230.96L85.68 230.42L114.51 232.59L114.78 232.59Q122.67 220.63 119.68 193.43L119.68 193.43Q118.86 186.63 117.50 181.19L117.50 181.19Q81.87 184.45 59.84 188.53L59.84 188.53L35.90 193.70Q34.54 193.70 33.46 193.97L33.46 193.97Q26.11 194.79 19.31 189.62L19.31 189.62Q16.86 187.99 14.69 185.54L14.69 185.54Q14.69 182.55 15.78 182.55L15.78 182.55L115.60 173.30Q115.06 169.22 108.53 163.51L108.53 163.51L104.72 159.97L104.72 153.99Q109.62 153.99 118.32 159.70L118.32 159.70Q119.68 160.51 120.77 161.06L120.77 161.06L138.45 137.39Q138.45 133.86 136 132.77L136 132.77Q118.05 135.22 91.12 145.83L91.12 145.83Q78.88 145.83 75.07 139.30L75.07 139.30Q74.26 137.94 74.26 136.31L74.26 136.31L74.80 135.49L76.16 134.67Q93.57 136.31 117.23 128.69L117.23 128.69L126.75 125.43L127.30 125.43L138.72 122.16Q139.26 122.16 139.54 122.16L139.54 122.16Q147.70 121.62 158.85 131.41L158.85 131.41Q160.48 132.77 162.11 134.67L162.11 134.67L162.38 138.21Q161.30 139.57 155.04 142.02L155.04 142.02L153.41 142.83Q140.08 149.36 124.58 162.96L124.58 162.96Q126.48 163.51 128.66 168.95L128.66 168.95Q130.83 173.84 135.46 171.12L135.46 171.12L199.65 161.87Q209.44 160.51 219.50 164.59L219.50 164.59Q229.84 168.67 231.20 175.75L231.20 175.75Q231.20 176.56 231.20 177.65Z" stroke="#000" fill="black" /></svg>