<svg width="272" height="272" version="1.1" xmlns="http://www.w3.org/2000/svg" xmlns:xlink="http://www.w3.org/1999/xlink"><path d="M184.14 14.06L184.14 14.06L180.61 16.78Q138.99 19.77 113.70 25.76L113.70 25.76L120.77 31.47Q123.76 34.73 123.22 38.54L123.22 38.54L122.94 39.63Q107.44 49.96 81.87 76.08L81.87 76.08L83.23 78.25Q115.87 71.45 153.95 69.00L153.95 69.00L137.63 51.05L137.63 45.07Q149.06 46.43 164.83 57.31L164.83 57.31Q178.16 66.28 179.79 73.63L179.79 73.63Q180.61 77.71 180.61 81.52L180.61 81.52Q180.61 86.41 178.98 88.86L178.98 88.86Q175.44 91.58 174.35 91.58L174.35 91.58Q171.90 91.58 159.12 76.35L159.12 76.35Q158.58 75.80 158.30 75.26L158.30 75.26Q104.99 80.97 76.70 92.94L76.70 92.94Q68.82 96.48 61.47 100.56L61.47 100.56Q55.49 99.74 56.03 89.68L56.03 89.68Q56.58 83.15 59.30 80.43L59.30 80.43L67.46 74.72Q85.41 61.12 94.11 43.98L94.11 43.98Q97.92 37.45 98.19 35.55L98.19 35.55L98.19 27.93Q96.29 27.93 81.06 30.38L81.06 30.38Q65.28 33.10 58.75 24.12L58.75 24.12Q58.21 23.58 57.66 22.76L57.66 22.76Q57.94 21.95 59.84 20.59L59.84 20.59L112.34 14.06Q127.02 12.16 145.79 8.62L145.79 8.62L161.02 5.08Q168.64 4.27 175.98 6.99L175.98 6.99Q182.24 9.44 184.14 14.06ZM229.30 181.88L229.30 181.88Q227.39 184.06 223.31 184.06L223.31 184.06L172.45 182.43L171.90 182.43Q123.22 182.43 80.24 188.68L80.24 188.68L40.80 196.03Q39.44 196.03 38.08 196.30L38.08 196.30Q31.82 196.57 25.30 191.68L25.30 191.68Q22.30 189.50 20.67 186.51L20.67 186.51Q20.67 183.79 23.12 183.52L23.12 183.52L111.25 176.17L111.52 141.63Q88.13 143.26 82.14 142.72L82.14 142.72Q69.63 141.90 66.91 137.28L66.91 137.28Q66.37 135.92 66.37 134.56L66.37 134.56L69.36 133.20Q88.94 132.38 110.43 129.39L110.43 129.39Q110.43 109.53 103.36 98.92L103.36 98.92Q103.09 88.86 120.50 97.84L120.50 97.84Q128.11 101.92 131.10 104.91L131.10 104.91Q131.10 107.63 128.11 119.87L128.11 119.87Q127.30 122.59 127.02 124.76L127.02 124.76L152.86 119.05Q166.46 117.42 173.81 125.58L173.81 125.58Q173.81 129.39 170.27 131.02L170.27 131.02Q164.83 133.74 133.82 137.55L133.82 137.55L126.48 138.64Q123.49 157.68 122.94 174.54L122.94 174.54Q131.65 175.36 185.23 166.92L185.23 166.92Q192.58 165.84 196.66 165.02L196.66 165.02L203.46 163.93Q211.34 163.93 221.95 170.46L221.95 170.46Q230.93 176.17 229.30 181.88Z" stroke="#000" fill="black" /></svg>